<svg xmlns="http://www.w3.org/2000/svg" xmlns:xlink="http://www.w3.org/1999/xlink" width="1080" zoomAndPan="magnify" viewBox="0 0 810 809.999993" height="1080" preserveAspectRatio="xMidYMid meet" version="1.0"><path fill="#000000" d="M 710.417969 643.820312 C 728.796875 662.199219 728.796875 692.039062 710.417969 710.417969 C 692.039062 728.796875 662.199219 728.796875 643.820312 710.417969 L 404.832031 471.425781 L 165.839844 710.417969 C 147.460938 728.796875 117.621094 728.796875 99.242188 710.417969 C 80.863281 692.039062 80.863281 662.199219 99.242188 643.820312 L 338.234375 404.832031 L 99.242188 165.839844 C 80.863281 147.460938 80.863281 117.621094 99.242188 99.242188 C 117.621094 80.863281 147.460938 80.863281 165.839844 99.242188 L 404.832031 338.234375 L 643.820312 99.242188 C 662.199219 80.863281 692.039062 80.863281 710.417969 99.242188 C 728.796875 117.621094 728.796875 147.460938 710.417969 165.839844 L 471.425781 404.832031 Z M 710.417969 643.820312 " fill-opacity="1" fill-rule="nonzero"/></svg>