<svg xmlns="http://www.w3.org/2000/svg" xmlns:xlink="http://www.w3.org/1999/xlink" width="1080" zoomAndPan="magnify" viewBox="0 0 810 809.999993" height="1080" preserveAspectRatio="xMidYMid meet" version="1.0"><defs><clipPath id="3cb94ef9d5"><path d="M 83 179 L 729 179 L 729 631 L 83 631 Z M 83 179 " clip-rule="nonzero"/></clipPath></defs><g clip-path="url(#3cb94ef9d5)"><path fill="#000000" d="M 116.460938 179.328125 C 115.398438 179.3125 114.332031 179.351562 113.273438 179.441406 C 112.210938 179.53125 111.15625 179.671875 110.109375 179.867188 C 109.0625 180.0625 108.027344 180.308594 107.003906 180.609375 C 105.980469 180.90625 104.972656 181.253906 103.984375 181.648438 C 102.996094 182.046875 102.03125 182.492188 101.085938 182.988281 C 100.140625 183.480469 99.222656 184.019531 98.332031 184.601562 C 97.441406 185.1875 96.582031 185.8125 95.75 186.484375 C 94.921875 187.152344 94.128906 187.863281 93.371094 188.609375 C 92.613281 189.359375 91.890625 190.144531 91.210938 190.960938 C 90.53125 191.78125 89.890625 192.632812 89.292969 193.515625 C 88.699219 194.398438 88.144531 195.308594 87.640625 196.246094 C 87.132812 197.1875 86.675781 198.144531 86.261719 199.128906 C 85.851562 200.113281 85.488281 201.113281 85.179688 202.132812 C 84.867188 203.152344 84.605469 204.183594 84.394531 205.230469 C 84.1875 206.273438 84.027344 207.328125 83.921875 208.386719 C 83.816406 209.449219 83.765625 210.511719 83.765625 211.578125 C 83.765625 212.644531 83.816406 213.707031 83.921875 214.765625 C 84.027344 215.828125 84.1875 216.878906 84.394531 217.925781 C 84.605469 218.96875 84.867188 220.003906 85.179688 221.019531 C 85.488281 222.039062 85.851562 223.042969 86.261719 224.023438 C 86.675781 225.007812 87.132812 225.96875 87.640625 226.90625 C 88.144531 227.84375 88.699219 228.753906 89.292969 229.636719 C 89.890625 230.519531 90.53125 231.371094 91.210938 232.191406 C 91.890625 233.011719 92.613281 233.796875 93.371094 234.542969 C 94.128906 235.292969 94.921875 236 95.75 236.671875 C 96.582031 237.339844 97.441406 237.96875 98.332031 238.550781 C 99.222656 239.136719 100.140625 239.675781 101.085938 240.167969 C 102.03125 240.660156 102.996094 241.105469 103.984375 241.503906 C 104.972656 241.902344 105.980469 242.25 107.003906 242.546875 C 108.027344 242.84375 109.0625 243.089844 110.109375 243.285156 C 111.15625 243.480469 112.210938 243.625 113.273438 243.714844 C 114.332031 243.804688 115.398438 243.84375 116.460938 243.828125 L 696.761719 243.828125 C 697.828125 243.84375 698.890625 243.804688 699.953125 243.714844 C 701.011719 243.625 702.066406 243.480469 703.117188 243.285156 C 704.164062 243.089844 705.199219 242.84375 706.222656 242.546875 C 707.246094 242.25 708.25 241.902344 709.238281 241.503906 C 710.226562 241.105469 711.195312 240.660156 712.136719 240.167969 C 713.082031 239.675781 714 239.136719 714.890625 238.550781 C 715.78125 237.96875 716.644531 237.339844 717.472656 236.671875 C 718.300781 236 719.09375 235.292969 719.855469 234.542969 C 720.613281 233.796875 721.332031 233.011719 722.011719 232.191406 C 722.695312 231.371094 723.332031 230.519531 723.929688 229.636719 C 724.527344 228.753906 725.078125 227.84375 725.585938 226.90625 C 726.089844 225.96875 726.550781 225.007812 726.960938 224.023438 C 727.371094 223.042969 727.734375 222.039062 728.046875 221.019531 C 728.359375 220.003906 728.617188 218.96875 728.828125 217.925781 C 729.039062 216.878906 729.195312 215.828125 729.300781 214.765625 C 729.40625 213.707031 729.457031 212.644531 729.457031 211.578125 C 729.457031 210.511719 729.40625 209.449219 729.300781 208.386719 C 729.195312 207.328125 729.039062 206.273438 728.828125 205.230469 C 728.617188 204.183594 728.359375 203.152344 728.046875 202.132812 C 727.734375 201.113281 727.371094 200.113281 726.960938 199.128906 C 726.550781 198.144531 726.089844 197.1875 725.585938 196.246094 C 725.078125 195.308594 724.527344 194.398438 723.929688 193.515625 C 723.332031 192.632812 722.695312 191.78125 722.011719 190.960938 C 721.332031 190.144531 720.613281 189.359375 719.855469 188.609375 C 719.09375 187.863281 718.300781 187.152344 717.472656 186.484375 C 716.644531 185.8125 715.78125 185.1875 714.890625 184.601562 C 714 184.019531 713.082031 183.480469 712.136719 182.988281 C 711.195312 182.492188 710.226562 182.046875 709.238281 181.648438 C 708.25 181.253906 707.246094 180.90625 706.222656 180.609375 C 705.199219 180.308594 704.164062 180.0625 703.117188 179.867188 C 702.066406 179.671875 701.011719 179.53125 699.953125 179.441406 C 698.890625 179.351562 697.828125 179.3125 696.761719 179.328125 Z M 116.460938 372.824219 C 115.398438 372.808594 114.332031 372.847656 113.273438 372.9375 C 112.210938 373.027344 111.15625 373.171875 110.109375 373.367188 C 109.0625 373.5625 108.027344 373.808594 107.003906 374.105469 C 105.980469 374.402344 104.972656 374.75 103.984375 375.148438 C 102.996094 375.546875 102.03125 375.992188 101.085938 376.484375 C 100.140625 376.976562 99.222656 377.515625 98.332031 378.101562 C 97.441406 378.683594 96.582031 379.3125 95.753906 379.980469 C 94.921875 380.652344 94.128906 381.359375 93.371094 382.109375 C 92.613281 382.855469 91.890625 383.640625 91.210938 384.460938 C 90.53125 385.28125 89.890625 386.132812 89.292969 387.015625 C 88.699219 387.898438 88.144531 388.808594 87.640625 389.746094 C 87.132812 390.683594 86.675781 391.644531 86.261719 392.628906 C 85.851562 393.609375 85.492188 394.613281 85.179688 395.628906 C 84.867188 396.648438 84.605469 397.683594 84.394531 398.726562 C 84.1875 399.773438 84.027344 400.824219 83.921875 401.886719 C 83.816406 402.945312 83.765625 404.007812 83.765625 405.074219 C 83.765625 406.140625 83.816406 407.203125 83.921875 408.265625 C 84.027344 409.324219 84.1875 410.378906 84.394531 411.421875 C 84.605469 412.46875 84.867188 413.5 85.179688 414.519531 C 85.492188 415.539062 85.851562 416.539062 86.261719 417.523438 C 86.675781 418.507812 87.132812 419.464844 87.640625 420.402344 C 88.144531 421.34375 88.699219 422.253906 89.292969 423.136719 C 89.890625 424.019531 90.53125 424.871094 91.210938 425.691406 C 91.890625 426.507812 92.613281 427.292969 93.371094 428.042969 C 94.128906 428.789062 94.921875 429.5 95.753906 430.167969 C 96.582031 430.839844 97.441406 431.464844 98.332031 432.050781 C 99.222656 432.632812 100.140625 433.171875 101.085938 433.664062 C 102.03125 434.160156 102.996094 434.605469 103.984375 435 C 104.972656 435.398438 105.980469 435.746094 107.003906 436.042969 C 108.027344 436.34375 109.0625 436.589844 110.109375 436.785156 C 111.15625 436.976562 112.210938 437.121094 113.273438 437.210938 C 114.332031 437.300781 115.398438 437.339844 116.460938 437.324219 L 696.761719 437.324219 C 697.828125 437.339844 698.890625 437.300781 699.953125 437.210938 C 701.011719 437.121094 702.066406 436.976562 703.117188 436.785156 C 704.164062 436.589844 705.199219 436.34375 706.222656 436.042969 C 707.246094 435.746094 708.25 435.398438 709.238281 435 C 710.226562 434.605469 711.195312 434.160156 712.136719 433.664062 C 713.082031 433.171875 714 432.632812 714.890625 432.050781 C 715.78125 431.464844 716.644531 430.839844 717.472656 430.167969 C 718.300781 429.5 719.09375 428.789062 719.851562 428.042969 C 720.613281 427.292969 721.332031 426.507812 722.011719 425.691406 C 722.695312 424.871094 723.332031 424.019531 723.929688 423.136719 C 724.527344 422.253906 725.078125 421.34375 725.582031 420.402344 C 726.089844 419.464844 726.550781 418.507812 726.960938 417.523438 C 727.371094 416.539062 727.734375 415.539062 728.046875 414.519531 C 728.355469 413.5 728.617188 412.46875 728.828125 411.421875 C 729.039062 410.378906 729.195312 409.324219 729.300781 408.265625 C 729.40625 407.203125 729.457031 406.140625 729.457031 405.074219 C 729.457031 404.007812 729.40625 402.945312 729.300781 401.886719 C 729.195312 400.824219 729.039062 399.773438 728.828125 398.726562 C 728.617188 397.683594 728.355469 396.648438 728.046875 395.632812 C 727.734375 394.613281 727.371094 393.609375 726.960938 392.628906 C 726.550781 391.644531 726.089844 390.683594 725.582031 389.746094 C 725.078125 388.808594 724.527344 387.898438 723.929688 387.015625 C 723.332031 386.132812 722.695312 385.28125 722.011719 384.460938 C 721.332031 383.640625 720.613281 382.855469 719.851562 382.109375 C 719.09375 381.359375 718.300781 380.652344 717.472656 379.980469 C 716.644531 379.3125 715.78125 378.683594 714.890625 378.101562 C 714 377.515625 713.082031 376.976562 712.136719 376.484375 C 711.195312 375.992188 710.226562 375.546875 709.238281 375.148438 C 708.25 374.75 707.246094 374.402344 706.222656 374.105469 C 705.199219 373.808594 704.164062 373.5625 703.117188 373.367188 C 702.066406 373.171875 701.011719 373.027344 699.953125 372.9375 C 698.890625 372.847656 697.828125 372.808594 696.761719 372.824219 Z M 116.460938 566.324219 C 115.398438 566.308594 114.332031 566.34375 113.273438 566.4375 C 112.210938 566.527344 111.15625 566.667969 110.109375 566.863281 C 109.0625 567.058594 108.027344 567.304688 107.003906 567.601562 C 105.980469 567.902344 104.972656 568.25 103.984375 568.644531 C 102.996094 569.042969 102.03125 569.488281 101.085938 569.980469 C 100.140625 570.476562 99.222656 571.015625 98.332031 571.597656 C 97.441406 572.183594 96.582031 572.808594 95.75 573.480469 C 94.921875 574.148438 94.128906 574.859375 93.371094 575.605469 C 92.609375 576.355469 91.890625 577.136719 91.210938 577.957031 C 90.527344 578.777344 89.890625 579.628906 89.292969 580.511719 C 88.695312 581.394531 88.144531 582.304688 87.640625 583.242188 C 87.132812 584.179688 86.671875 585.140625 86.261719 586.125 C 85.851562 587.109375 85.488281 588.109375 85.175781 589.128906 C 84.867188 590.148438 84.605469 591.179688 84.394531 592.222656 C 84.183594 593.269531 84.027344 594.324219 83.921875 595.382812 C 83.816406 596.445312 83.765625 597.507812 83.765625 598.574219 C 83.765625 599.636719 83.816406 600.703125 83.921875 601.761719 C 84.027344 602.824219 84.183594 603.875 84.394531 604.921875 C 84.605469 605.964844 84.867188 606.996094 85.175781 608.015625 C 85.488281 609.035156 85.851562 610.039062 86.261719 611.019531 C 86.671875 612.003906 87.132812 612.964844 87.640625 613.902344 C 88.144531 614.839844 88.695312 615.75 89.292969 616.632812 C 89.890625 617.515625 90.527344 618.367188 91.210938 619.1875 C 91.890625 620.007812 92.609375 620.792969 93.371094 621.539062 C 94.128906 622.289062 94.921875 622.996094 95.75 623.667969 C 96.582031 624.335938 97.441406 624.964844 98.332031 625.546875 C 99.222656 626.132812 100.140625 626.671875 101.085938 627.164062 C 102.03125 627.65625 102.996094 628.101562 103.984375 628.5 C 104.972656 628.898438 105.980469 629.246094 107.003906 629.542969 C 108.027344 629.839844 109.0625 630.085938 110.109375 630.28125 C 111.15625 630.476562 112.210938 630.617188 113.273438 630.710938 C 114.332031 630.800781 115.398438 630.835938 116.460938 630.824219 L 696.761719 630.824219 C 697.828125 630.835938 698.890625 630.800781 699.953125 630.710938 C 701.011719 630.617188 702.066406 630.476562 703.117188 630.28125 C 704.164062 630.085938 705.199219 629.839844 706.222656 629.542969 C 707.246094 629.246094 708.25 628.898438 709.238281 628.5 C 710.226562 628.101562 711.195312 627.65625 712.140625 627.164062 C 713.082031 626.671875 714 626.132812 714.890625 625.546875 C 715.785156 624.964844 716.644531 624.335938 717.472656 623.667969 C 718.300781 622.996094 719.09375 622.289062 719.855469 621.539062 C 720.613281 620.792969 721.332031 620.007812 722.015625 619.1875 C 722.695312 618.367188 723.332031 617.515625 723.929688 616.632812 C 724.527344 615.75 725.078125 614.839844 725.585938 613.902344 C 726.089844 612.964844 726.550781 612.003906 726.960938 611.019531 C 727.371094 610.039062 727.734375 609.035156 728.046875 608.015625 C 728.359375 606.996094 728.617188 605.964844 728.828125 604.921875 C 729.039062 603.875 729.195312 602.824219 729.300781 601.761719 C 729.40625 600.703125 729.460938 599.636719 729.460938 598.574219 C 729.460938 597.507812 729.40625 596.445312 729.300781 595.382812 C 729.195312 594.324219 729.039062 593.269531 728.828125 592.222656 C 728.617188 591.179688 728.359375 590.148438 728.046875 589.128906 C 727.734375 588.109375 727.371094 587.109375 726.960938 586.125 C 726.550781 585.140625 726.089844 584.179688 725.585938 583.242188 C 725.078125 582.304688 724.527344 581.394531 723.929688 580.511719 C 723.332031 579.628906 722.695312 578.777344 722.015625 577.957031 C 721.332031 577.136719 720.613281 576.355469 719.855469 575.605469 C 719.09375 574.859375 718.300781 574.148438 717.472656 573.480469 C 716.644531 572.808594 715.785156 572.183594 714.890625 571.597656 C 714 571.015625 713.082031 570.476562 712.140625 569.980469 C 711.195312 569.488281 710.226562 569.042969 709.238281 568.644531 C 708.25 568.25 707.246094 567.902344 706.222656 567.601562 C 705.199219 567.304688 704.164062 567.058594 703.117188 566.863281 C 702.066406 566.667969 701.011719 566.527344 699.953125 566.4375 C 698.890625 566.34375 697.828125 566.308594 696.761719 566.324219 Z M 116.460938 566.324219 " fill-opacity="1" fill-rule="nonzero"/></g></svg>